<svg xmlns="http://www.w3.org/2000/svg" viewBox="0 0 300 305">
  <path class="cls-1" d="M116.625,0.151c23.229-.345,39.3,4.085,55,11,7.727,3.4,14.752,8.343,21.246,13.11,1.7,1.245,3.154,2.96,4.822,4.219a60.088,60.088,0,0,1,6.177,5.726l2.261,2.11c2.348,3.107,5.339,5.637,7.684,8.74l3.918,3.767a38.914,38.914,0,0,0,3.917,3.918l2.261,2.411c5.45,4.124,10.125,9.483,15.67,13.562,5.322,3.915,10.629,7.83,15.972,11.754,2.947,2.165,5.37,5.028,8.287,7.233A20,20,0,0,1,267.3,91.47l2.109,1.959c1.224,1.617,2.544,3.038,3.767,4.671,1.3,1.732,2.96,3.34,4.219,5.124,2.372,3.359,4.616,6.876,6.781,10.4,4.7,7.641,7.614,16.157,10.7,25.466,1.7,5.148,2.412,10.954,3.767,16.727,0.548,2.335.246,4.82,0.753,7.083v2.109a33.622,33.622,0,0,1,.151,10.247c-0.238,1.076.046,2.577-.151,3.466l-0.15,3.918c-0.513,2.262-.536,4.942-1.055,7.083-0.614,2.532-.52,4.818-1.206,7.233-1.293,4.557-2.171,9.315-3.917,13.562-1.305,3.174-2.736,6.47-4.068,9.494a54.462,54.462,0,0,1-3.014,6.48c-3,4.941-5.919,9.825-9.191,14.466-1.965,2.786-4.6,5.151-6.63,7.836a58.08,58.08,0,0,1-10.246,10.247c-0.7.531-1.254,1.427-1.959,1.959-2.338,1.761-4.553,3.746-6.931,5.425a127.157,127.157,0,0,1-22.15,12.658c-7.584,3.327-15.752,5.277-24.561,7.535-4.031,1.033-8.455.725-12.657,1.657-2.027.45-4.406-.124-6.328,0.3h-3.616c-3.761,0-8.14-.433-11.452.3h-2.26c-2.47.554-5.455,0.353-7.835,0.9l-5.575.6c-2.45.6-5.161,0.646-7.685,1.356-6.552,1.845-13.1,3.022-19.287,5.124-3.673,1.248-7.419,2.828-11.15,4.068-3.145,1.046-6.522,1.572-9.794,2.411-3.509.9-7.342,0.537-11,1.357H92.215a34.817,34.817,0,0,1-9.794-.3l-2.863-.15-6.781-1.055c-5.219-1.357-10.387-2.431-15.068-4.37-16.993-7.042-30.9-17.7-40.834-31.8-2.232-3.17-4.141-6.6-6.178-9.946-1.948-3.2-3.029-6.775-4.52-10.4-2.3-5.586-3.386-11.545-4.972-18.083-0.668-2.753-.133-5.67-0.753-8.589A46.763,46.763,0,0,1,.6,207.653l0.151-3.164c0.732-3.188.781-6.555,1.657-9.645,1.909-6.727,3.781-13.071,5.575-20.042l1.507-10.4c0.306-1.361.031-2.855,0.3-4.069v-3.617a19.49,19.49,0,0,0,0-4.52l-0.151-6.48c-0.87-3.93-.771-8.25-1.657-11.9l-1.055-8.891v-2.109c-0.532-2.484-.3-5.586-0.3-8.439v-3.014c0.347-1.547-.077-3.445.3-5.123,1.084-4.806.831-9.789,2.109-14.316,1.457-5.155,2.412-10.459,4.37-15.22,3.9-9.491,8.053-18.361,13.561-26.22A117.885,117.885,0,0,1,55,21.85c4.229-2.986,8.771-5.554,13.26-8.288,0.967-.589,2.006-0.833,3.014-1.356,3.823-1.987,8.045-3.717,12.2-5.425C90,4.1,97.274,3.156,104.721,1.356l7.534-.9C113.543,0.165,115.608.791,116.625,0.151Z"/>
</svg>
