<svg xmlns="http://www.w3.org/2000/svg" viewBox="0 0 300 401">
  <path class="cls-1" d="M105.964,0c11.183-.234,16.456,6.1,26.491,8.141L158.017,9.3c19.052,2.714,43.687,3.442,47.405,21.166,3.558,16.962-16.006,47.467-21.146,60.243-0.993,2.468-7.553,18.521-6.739,20.237L193.8,92.342c7.338-9.242,13.758-23.379,25.562-27.912,17.126-6.576,41.805,2.733,46.011,14.654,2.272,6.442-1.528,15.054.929,22.1,1.523,4.366,7.044,6.516,9.528,10.235,9.249,13.85,21.576,39.463,18.125,64.2a109.908,109.908,0,0,1-4.647,20.934l-3.254,7.443c-0.535,3.162,4.931,7.555,6.275,9.769,5.128,8.455,10.82,24.535,5.577,36.751-3.743,8.72-14.871,22.291-28.815,16.514-11.933-4.944-19.038-17.735-29.745-24.423-21.364-13.346-76.918-20.643-104.57-8.373-38.815,17.223-55.593,55.238-76.22,90.946L36.948,359.83c-5.288,8.393-24.628,44-36.019,40.937a5.056,5.056,0,0,1,.232-5.815c14.386-4.77,25.081-32.68,33.23-45.821,10.1-16.281,21.481-33.7,29.28-51.87l6.042-22.8,8.133-25.585c1.554-8.853.464-19.144,0.465-29.075,0-29.673-1.111-53.777-7.9-75.595-8.214-26.392-27.871-43.9-41.363-65.593-3.574-5.747-8.676-11.632-9.992-19.306-3.566-20.785,26.776-31.951,40.2-37.681,5.468-2.334,14.863-8.117,22.773-6.048,7.685,2.01,12.591,12.823,15.8,19.538C103,19.161,87.495,8.282,105.964,0Z"/>
</svg>
