<svg version="1.2" xmlns="http://www.w3.org/2000/svg" viewBox="0 0 187 326">
	<path id="Layer" fill-rule="evenodd" class="s0" d="m5.1 9.2c6.7 11.3 13.7 21.4 21.1 31.8 12.2 17.1 23.3 35.7 35.5 52.8q3.8 5.2 7.5 10.3l9.9 10.8c1.1 1.4 5.2 6.7 6.7 7.1q-4.8-8-9.6-16.1c-4.7-7.9-8.9-16.1-14.1-23.4-4.3-6.1-9.8-11.8-14.4-17.7l-2.4-4.4c-6.3-8.9-10-20.5-15.5-30q-5-8.6-10-17.1c-2.1-3.4-5.2-7.2-5.5-12.3q0-0.1 0.1-0.2c3.4 1.4 6.4 4.3 9.3 6.4 11.3 7.9 20.2 14.7 28.5 25.6 2.7 3.5 5.7 6.8 7.5 11.1 2.5 5.8 2.9 14.2 3.9 21.4 0.2 1.6-0.3 2.7 0.1 4.3 1.2 5 3.4 9.3 5.2 13.7 3.1 7.5 5.6 14.4 8.9 21.7 2.3 5.4 5.8 9.8 8.7 14.5q7 10.6 13.9 21.3 4.1 5.1 8.2 10.3c3.6 5.2 6.4 11.1 9.6 16.8 5.3 9.1 10.7 18.3 15.4 28.2q0 0.1 0.1 0.1h0.5c1-2.8-3.1-9.4-4-11.7q-1.8-6.5-3.6-13.1c-2.5-6.5-6.2-11.4-10.3-16.2-3.7-4.5-6-9.8-9.1-15-2.2-3.7-4.7-7.1-7-10.9-1.2-2.1-3.2-3.1-4.7-4.9q-2.9-4.3-5.8-8.6c-4.5-10.5-6.5-23.2-9.3-35-1.8-7.3-3.6-13.6-5.2-21.1-0.4-1.8-1.9-4.5-1.3-6.2q4.9 8.2 9.8 16.4 4.7 8.7 9.3 17.3c3.7 6.2 7.7 12.2 10.7 19 4.8 11.1 7.3 25.2 12 36.4q2.7 6.4 5.3 12.8c1.3 2.8 3.1 5.1 4 8.2 0.7 2.1 2.4 10.1 3.7 10.9h0.1c0.3-2-0.4-4.3-0.7-6.1-1.1-6.6-2.3-12.1-4.5-17.7-1.1-2.8-2.7-5.4-3.7-8.5-1.6-5.5-2.9-11.2-3.9-17.3-1.1-7.6-0.7-14.8-2.6-21.3-2.7-8.5-7.7-15.7-11.8-22.8l-6.5-14.4c-4.4-9.9-8.1-20-10.5-32.4q-0.5-3.3-1.1-6.6 0.1 0 0.2-0.1 2.5 4.6 4.9 9.2c2.6 4.5 5.5 9 8.7 12.9 10.6 12.9 24 23.3 33 37.8 4.6 7.4 7.7 16.4 10.1 25.9 2.6 10.7 2.2 26.6 0.7 38.7q-0.4 12.1-0.8 24.2c-0.6 4.7-2 9.7-1.2 14.8 0.6 4.4 1.1 9.7 1.8 14.5q0.2 3.6 0.5 7.3c0.3 1.7 1.4 2.7 2.1 4 3.3 6.8 5 14.3 8.5 20.9h0.2c0.4-3.4-1.9-8.2-2.8-11.3-0.8-3-0.7-6.5-1.5-9.9q-0.7-2.3-1.4-4.5c-1.5-6.5-4.1-15.6-3-23.8q0.9-6.2 1.8-12.5c0.4-7.1-1.9-22.9 1.3-27.1q0.3 0.1 0.6 0.1c2 3.2 1.6 8.6 2.7 12.6l4.8 15.8c1.6 4.8 4.8 9.9 3.8 17-1.9 13.5-5.8 26.9-3.6 42.5 0.4 2.9 0.2 6.3 1.4 8.3 0-3.1 0.4-5.6 0.7-8.1v-7c0.7-6.1 0.7-12.2 2.1-17.5 2.3-8.4 7.1-16.1 5.7-28q-0.8-9.3-1.5-18.6c-4-16.4-12.3-34.8-11.8-54.6 1.6 0.7 3.1 5.4 4.1 7 4.8 7.3 8.5 15.3 12.3 23.8 4.5 10.1 9.6 19.6 13.7 30.1 1.4 3.5 3.4 7 4.2 11.2 1.4 6.8 1 19.3 0 26.6-0.9 6.4-0.2 13.4-1.6 19.1-2 8.7-5.3 16.7-7.6 24.7q-3 13.9-6 27.9c-1.1 6 0.1 12.7 0.9 18.5q-0.1 6.3-0.2 12.6c0.5 3.3 2.2 10.3 1.5 13.4q-0.4 0.1-0.7 0.2c-4.4-4-2.6-17.4-4.3-24.4-2.5-10.5-11-23.2-18.2-29.2-7-5.9-14.4-10.3-22.7-15.1q-3.7-2.1-7.4-4.2c-4.1-1.7-8.5-2-13.2-3.4q-3.2-1.2-6.4-2.3c-2.6-0.8-5.3-1.1-7.4-2.3-7.6-4.4-15.1-14.4-20.7-21.1-8.1-9.7-14.4-21.4-20.9-32.5-1.4-2.3-4.6-11.2-6.8-11.8v-0.1q0.2-0.1 0.5-0.1c3.9 2.6 6.4 7 9.6 10.3 6.5 6.4 13.8 12.7 21.1 18.2q10.9 8.4 21.8 16.7 4.6 4.1 9.3 8.1c8.2 6.3 17 11.9 25 18.4 4.5 3.6 8.9 8.1 12.7 12.6q3.8 3.8 7.7 7.6l9.1 11.2c1-0.5-2.4-9.3-3-10.6-4.5-10.6-11.6-19.5-18.4-27.8-7.7-9.3-18.4-15.3-28.8-21.8-3.5-2.2-6.5-5.2-10.1-7.3l-17.9-7.9-4.9-4c-2.4-1.7-4.9-3-7.1-4.9q-2.2-2.5-4.3-5.1-3-2.9-6-5.9c-2.5-3.5-4.2-7.3-6.5-11.2-2.6-4.7-11.5-16.3-11.5-21.8l0.2-0.2c3.4 1.5 7 7.8 9.7 10.5 7.3 7.2 15.4 13.9 23.3 20.4l15.3 13.3q8.3 8.2 16.6 16.5 5.4 4 10.8 8.1c10.8 8.5 21.4 18.7 29.4 30 4.4 6.1 9.1 13 12 20.3 1.9 4.8 2.1 11.3 4.8 15.3q0 0 0.1 0.1c0.7-2.5-1.9-9.9-2.6-12.2q-2.7-9-5.5-18-3.3-6.4-6.6-12.8c-1.5-3.5-4.3-5.5-6.4-8.4q-3.9-5.4-7.8-10.8c-2.7-3.4-6.4-6.4-9.2-9.8q-1.6-1.9-3.3-3.8-3.8-1.8-7.7-3.6-4.2-2.9-8.4-5.8-5.8-5.4-11.5-10.8-1.6-1.8-3.3-3.7-4.1-2.7-8.3-5.5l-14.1-13.2q-7.9-7.9-15.9-15.9-2.3-2.6-4.6-5.3l-8.5-6.4q-2.2-2.4-4.4-4.9c-6.3-6.3-12.1-12.4-17.1-20-1.4-1.9-7-10.9-5.8-13.9v-0.3q3.5 3.2 7.1 6.3c6 4.9 12.1 10 19 14 1.8 1 3.8 1.3 5.8 2.3q7.7 4 15.5 8.1c4.5 1.8 9.1 3 13.1 5.5q8.3 7.7 16.5 15.4c5.7 6.9 10.6 15.7 14.4 24.3 2.2 5 4 9.9 6.8 14.3 4.7 7.6 10.8 14.8 16.5 21.6 5.3 6.3 11.8 11.5 17 17.9h0.2c0.2-1.9-2.7-7.4-3.5-9.4l-6.4-18.8c-0.8-1.8-2.3-3.2-3.1-5.2-10.9-25.5-24.2-42.1-44.2-58.3-2.7-2.3-5.2-5.2-8.1-7.1-2.2-1.4-4.4-2.9-6.9-3.6q-2.3-0.6-4.6-1.1-2.8-1.3-5.7-2.6l-2.1 0.3-7.8-4.5c-9.7-4.2-18.9-9-25-16.8-2.6-3.3-4.5-7.3-6.9-10.9-2.4-3.9-5.2-7.9-6.5-12.9q0-0.3 0.1-0.6h0.1q4.3 3.8 8.5 7.7c3.5 2.8 7.5 5.4 11.4 7.8 2.6 1.5 5.2 2.1 8 3.6 1.3 0.6 2.2 2.5 3.4 3h2l5.2 2.8c7.3 4.6 12.2 11.2 18.6 16.5l9.9 6.9c4.4 3.4 8.4 7.4 12.3 11.4 4.3 4.2 8.5 8.4 12.4 13 1.5 1.8 3.5 3.2 4.6 5.4q0.2 0 0.5-0.1c-1.2-1.6-2.3-4.4-3.6-6.3q-7.2-9.6-14.3-19.1c-1.9-2.5-4.6-4-6.8-6.2-3.6-3.7-6.7-7.8-10.7-11.1q-3.8-2.9-7.6-5.9-2-2.2-4-4.4l-6.3-5.6q-2.2-2.8-4.4-5.5c-6.6-5.4-15.6-7.4-23.1-12.1-4.9-3-7.7-7.8-11-12.5-3.5-4.7-6.8-8.6-9.1-14.7-3.6-9.3-5.5-19.7-7.6-30.8q-0.6-6-1.2-12-1.1-6.8-2.2-13.5 2.7 4.6 5.3 9.2zm38.1 169.2q-0.2-0.1-0.3-0.2 0.1-0.1 0.3-0.1zm0.9 1.2h-0.1q-0.2-0.1-0.4-0.2 0.2-0.5 0.4-0.9 0 0.5 0.1 1.1z"/>
</svg>