<svg version="1.2" xmlns="http://www.w3.org/2000/svg" viewBox="0 0 273 278">
<path  d="m195.2 0l-0.8 0.2-1.8 10.1-3.5 11.8c-1.8 8.6-0.9 24 4.8 27.5l-1.2 8.4c-1.5-2.3-2.3-4.9-3.9-7-5.8-8-14.3-13.4-23.4-18.2-2.5-1.2-5.4-3.4-8.4-3.8l-0.7 0.6q0 0.4 0.1 0.7c4.1 3.4 6.8 8.1 10.1 12.2 4.9 6.3 17 17.4 25 20.3 1 5.3-3.3 16.4-4.4 21.6h-0.1c-3.5-18.7-21.2-34.9-36.9-41.9-2.6-1.1-16.4-7.1-19.3-5.2-0.3 1.5 6.3 11.7 7.5 13.5q1.8 2.9 3.8 5.5 2 2.7 4.3 5.3 2.2 2.5 4.7 4.8 2.4 2.3 5.1 4.5c2.6 2 4.7 4.6 7.7 6.3l14.6 7.6c2.2 1 5.9 1.6 7.2 3.5l-9.9 24.5h-0.1q-2.4-4.4-4.8-8.8c-10.5-17.8-23.5-25.9-42.1-35.3-2.2-1.2-20.3-9.4-22-6.9q0.1 0.3 0.2 0.6c4.3 2.3 7.4 5.8 10.6 9 5.7 5.7 10.8 11.3 15.9 17.5 5.6 6.8 13.4 11.7 20.4 17.1 4.2 3.2 14.1 11 19.8 11.7l-14.1 32.7-1.1-7.1q-0.4-1.6-0.9-3.3-0.4-1.6-1-3.2-0.5-1.6-1.1-3.2-0.6-1.5-1.3-3.1c-9.2-20.9-28-33.6-46.6-45.3-5.7-3.6-12.3-6.8-18.3-10.1-1.8-0.9-4.4-3.4-6.8-3-1.1 1.7 1.5 4.9 2.3 6.3q4.9 8.8 9.9 17.6c6 9.9 13.6 17.7 21.7 25.4 5.6 5.4 10.7 11.2 17 15.8 4.6 3.4 9 7 13.6 10.2l10.7 7.2q-2.3 4.5-4.5 9c-3.5 6.1-5.9 13.2-10 18.7v-0.3l-2.8-10.6q-0.8-2.3-1.7-4.5-0.9-2.2-2.1-4.3-1.1-2.1-2.4-4.2-1.2-2-2.7-3.9c-11.3-15.8-31.7-22.4-48.3-32.9-8-5-16.5-9.3-24.8-14.1-2.7-1.6-5.7-4.9-9.2-5.4l-0.8 0.7c0.2 2.6 3.5 5.1 4.9 6.9 4.1 5.4 8 11.1 11.9 16.5 12.6 17.5 26.9 33.5 45.4 45l20.6 10.2c3.3 1.3 6.7 2.1 9.7 3.6-1 3.5-3.5 6.2-5.4 9.1-4.5 6.6-9.5 13.2-13.5 20l-0.3-0.1c-6.4-8.4-11.7-18.5-17.9-27.2-2-2.8-3.9-6.1-6.5-8.3q-2.9-2.3-5.8-4.6-2.9-2.2-6-4.3-3-2.1-6.1-4.1-3.1-2-6.3-3.8l-26-13.2c-6.3-3.7-12.8-7.4-18.2-11.8-1.7-1.3-4.6-5.1-7.2-4.7l-0.5 0.6c0.1 1.9 2 3.1 2.9 4.4 4.6 6.9 9.5 13.1 14.4 19.6 9.3 12.1 19.7 23.6 32.8 31.9l26.4 14.8 12.1 7.1c3.4 2.4 5.8 5.3 9.8 7.2v0.1q-9.8 13.8-19.6 27.6c-3-2.2-4.7-5.7-6.6-8.8l-12.1-17.9c-8.9-11.2-23.4-23.3-35.8-31-6.9-4.3-14.2-7.4-21.4-11.6-5.9-3.3-11.8-6.4-18-9.6-1.6-0.8-3.3-2.4-5.3-2.6l-0.6 0.4q-0.1 0.4-0.1 0.8c2 3.6 5.3 5.8 7.8 8.8l9.7 12.5q2.5 2.6 5.1 5.2l10.4 11.7c7.2 8.9 14.5 17.2 24.4 23.4q2.6 1.7 5.2 3.2 2.6 1.5 5.3 2.9 2.7 1.5 5.4 2.8 2.8 1.3 5.6 2.5c6.4 2.7 14.5 4.9 19.5 9.2l-5.3 6.8c-3.6 4.6-7.1 9.1-10.8 13.5-1.7 2-7 6.8-7.4 9.2 1.5 2.1 6-4.2 7.1-5.4q2.5-2.6 4.8-5.4 2.4-2.7 4.7-5.5 2.3-2.8 4.5-5.7 2.2-2.9 4.4-5.8c1 0.6 1.5-0.1 2.4-0.1q2.5 2.2 4.9 4.4c7.7 7.6 15.8 15.5 26.8 19.7 8.3 3.2 17.1 3.4 27.4 4.7q2.8 0.3 5.6 0.4 2.8 0.1 5.6 0 2.8-0.1 5.6-0.4 2.9-0.2 5.6-0.7c7-1.1 13.5-1.5 19.7-3.3q5.6-1.6 11-3.6 5.4-2.1 10.6-4.6 5.3-2.5 10.2-5.4 5-3 9.7-6.3c6.6-4.8 13.6-9.2 20.6-13.4 2.1-1.3 6.7-2.5 6.8-5.7l-0.4-0.3c-1-0.6-8.6 2.3-10.3 2.7-5.5 1.3-11.5 1-18.1 1.9l-14.4 2.4c-16.9 3.4-36.5 3.6-56.4 3.6l-25.4-0.1-13.9 0.7c-9.7 1.3-22.1 2.5-31.4 0.3v-0.1q3-4.3 6-8.5c4.4-6.2 9.8-12 13.4-18.9l10.7 5.3c4.2 1.8 9.6 2.7 14.6 3.6 24.1 4.4 50.6 0.8 68.1-7.3 6.7-3.1 12.8-7.6 18.8-11.6 8.1-5.5 15.5-11.5 23.1-17.3 1.5-1.2 8.2-4.6 5.4-7.1-4-0.1-7.2 1.9-10.5 2.9q-2.5 0.8-5.1 1.5-2.6 0.8-5.2 1.4-2.6 0.7-5.2 1.2-2.6 0.6-5.2 1.1c-21.6 3.9-44.8 3.6-65.2 8.4-6.3 1.4-13 2.6-18.7 4.8-7.3 2.7-14.3 6.5-22.3 8.4q3.1-4.4 6.1-8.8l8.8-13.6 3.1-4.4c5.4 1.1 11.2 0.6 17.6 1.4 19.1 2.4 43.4-2.2 54.8-8.8 9.5-5.4 15.9-13.6 24-20.3 5.4-4.6 10-10.1 14.5-15.5 1.3-1.6 4.8-3.4 5-5.7l-0.4-0.6c-2.6-0.7-6.6 1.9-8.7 2.9l-20.2 8.7c-17.7 6.6-37.2 9.5-54.5 16.6q-2.2 1-4.4 2-2.2 1-4.4 2.2-2.1 1.1-4.3 2.3-2.1 1.2-4.1 2.5c-4.1 2.6-7.8 6.3-12.6 8.1 4.5-9.3 9.9-18.4 14.6-27.9 31.9-1.3 53.7-10.2 72.5-24.6q1.5-1.1 3-2.3 1.4-1.1 2.8-2.4 1.4-1.3 2.8-2.6 1.3-1.3 2.5-2.8l12.3-12.9c0.6-0.6 4-4 3.7-4.8-0.5-1.8-5 0.6-6.1 1-6.4 2.5-12.9 4.8-19 7.6q-6.8 2.9-13.4 6-6.6 3.2-13.2 6.5-6.5 3.3-13 6.9-6.4 3.5-12.8 7.2c-6.9 4.1-12.9 10.1-20.4 13.4l13.9-32.6c21.7-0.7 47.8-15.1 57.5-27.8q1.3-1.7 2.6-3.5 1.2-1.8 2.5-3.7 1.2-1.8 2.3-3.7 1.2-1.8 2.2-3.8c1.7-2.9 2.7-6.4 4.5-9l-0.3-0.7-0.4-0.4c-5.5 0.1-15.3 8.4-19.6 11.1q-4.4 2.8-8.6 5.7-4.2 2.8-8.4 5.8-4.2 3-8.2 6.1-4.1 3.2-8.1 6.4c-5.8 4.6-10.4 10.4-16.8 14.5l10.7-26.9c17.2 0.3 36.2-14.5 43.5-24.3q0.6-0.9 1.2-1.8 0.6-1 1.2-1.9 0.6-0.9 1.1-1.9 0.6-0.9 1.1-1.9l2-4.2c0.4-0.5 1 0 1.3-0.7l0.1-0.2-0.1-0.5c-1-1.8-11.7 4.6-13 5.4-6.1 3.6-12.6 6.8-18.3 10.9l-10.3 8.3-7.7 6.4 3.6-17.6q0.2 0.1 0.5 0.1 0.2 0 0.4-0.2 0.2-0.1 0.4-0.3 0.1-0.2 0.1-0.4l-0.5-1.5c17.1 0.2 23.1-3.8 29.9-13.8 1.1-1.7 3.4-3 3.6-5.6-1.2-1.7-7.9 1.1-9.7 1.7-6.6 2.3-12.4 4.7-17.4 8.6l-6.5 6.5 1.6-10.2 2.2-1.9q0.8-1 1.5-2.1 0.7-1.1 1.3-2.3 0.5-1.2 1-2.4 0.5-1.2 0.8-2.5c3.5-12-0.8-25.2-4.8-33.1-0.8-1.6-1.4-3.8-2.7-5z"/>
</svg>