<svg version="1.2" xmlns="http://www.w3.org/2000/svg" viewBox="0 0 800 474">
	<path id="Calque 2" fill-rule="evenodd" class="s0" d="m26.1 1.3c-0.5 0.7-3.3 6.4-6.1 12.7-2.8 6.3-7.3 18.7-10 27.5-2.6 8.8-5.5 19.4-6.3 23.5-0.9 4.1-2.1 14.3-2.8 22.5-0.7 8.8-0.9 22.5-0.6 33 0.3 9.9 1.3 22.7 2.2 28.5 0.9 5.8 3.2 17.5 5.1 26 2 8.5 5 19.8 6.6 25 1.7 5.2 4.4 12.9 6 17 1.6 4.1 5.6 13.1 8.8 20 3.1 6.9 8.1 16.8 11 22 2.9 5.2 8.9 14.9 13.3 21.5 4.4 6.6 11 15.9 14.6 20.6 3.6 4.8 12.2 14.9 19.1 22.4 6.9 7.6 17.2 18.1 23 23.4 5.8 5.3 16.2 13.9 23 19.2 6.9 5.2 16.6 12.3 21.5 15.6 4.9 3.3 14.8 9.3 22 13.3 7.2 4 18.2 9.8 24.5 12.7 6.3 3 17.3 7.6 24.5 10.3 7.2 2.6 18.6 6.4 25.5 8.4 6.9 2 17.7 4.7 24 6 6.3 1.4 18.5 3.4 27 4.6 8.5 1.1 22.1 2.4 30.3 2.8 12.7 0.6 14.7 0.5 14.7-0.8 0-0.8-0.7-6.9-1.6-13.5-0.8-6.6-1.8-23.2-2.2-36.8l-0.7-24.9c-5.4-3.2-14.6-9.2-24-15.4-9.4-6.1-21.9-14.9-28-19.4-6.1-4.6-17.1-13.3-24.5-19.4-7.4-6.1-20.5-17.9-29.1-26.1-8.7-8.3-20.2-19.9-25.6-26-5.5-6.1-14.4-17.1-19.9-24.5-5.5-7.4-12.4-17.6-15.4-22.5-2.9-4.9-6-10.1-6.9-11.5-0.8-1.4-1-2.1-0.4-1.5 0.5 0.6 4.3 5.7 8.3 11.5 4 5.8 12.3 16.1 18.5 23 6.2 6.9 16.5 17.5 23.1 23.5 6.5 6.1 16 14.5 20.9 18.6 4.9 4.2 13.7 11.1 19.5 15.5 5.8 4.3 17.7 12.6 26.5 18.4 8.8 5.9 20.5 13.4 26 16.7 5.5 3.3 14.6 8.6 20.2 11.7 5.7 3.1 10.7 5.4 11.3 5.1 0.6-0.3 1-2.6 1-5.3 0-2.6 0.7-11 1.6-18.7 0.9-7.7 2.9-21.9 4.5-31.5 1.6-9.6 4.8-24.9 6.9-34 2.2-9.1 6.4-24.2 9.3-33.7l5.2-17.1c-4.6-6-10.5-13.1-16.1-19.7-5.6-6.6-17.5-19.2-26.5-28-9-8.9-20.7-19.6-25.9-24-5.2-4.3-15.4-12.2-22.5-17.6-7.1-5.3-18.6-13.2-25.5-17.6-6.9-4.4-19.7-12-28.5-16.8-8.8-4.9-23.4-12.2-32.5-16.2-9.1-4.1-19.7-8.7-23.5-10.3-3.8-1.6-14.9-5.9-24.5-9.6-9.6-3.6-29.7-10.9-44.5-16.1-14.8-5.2-35.3-12.3-45.5-15.8-10.2-3.5-20.9-7-23.7-7.8-4-1.2-5.5-1.3-6.2-0.4zm636.4 6.4c-2.2 0.2-9.4 1.3-16 2.4-6.6 1.1-18.3 3.5-26 5.4-7.7 1.9-20 5.4-27.2 7.9-7.3 2.5-19.7 7.5-27.5 11.1-7.9 3.6-18.8 9-24.3 12.1-5.5 3.1-16.3 9.8-24 14.9-7.7 5.2-18.9 13.3-25 18.2-6 4.8-18.7 16.4-28.1 25.8-9.7 9.7-21.5 22.8-27.6 30.5-5.8 7.4-13.4 17.8-17 23-3.6 5.2-9.6 14.9-13.4 21.5-3.7 6.6-9.6 17.9-13 25-3.4 7.2-8 17.7-10.2 23.5-2.2 5.8-5.6 15.7-7.7 22-2 6.3-5 17.4-6.6 24.5-1.7 7.1-3.9 18.6-4.9 25.5-1.1 6.9-2.5 18.8-3.1 26.5-0.7 8.4-0.9 22.3-0.6 34.5 0.3 11.3 1.3 26.1 2.2 33 0.9 6.9 2.8 17.7 4.1 24 1.4 6.3 3.8 16.4 5.5 22.5 1.7 6.1 3.4 11.6 3.7 12.2 0.4 0.7 4.6-6.5 9.9-17 5.1-10 13.1-25.2 17.8-33.7 4.8-8.5 13-22.7 18.2-31.5 5.3-8.8 16-25.7 23.8-37.5 7.8-11.8 19.3-28.2 25.5-36.5 6.2-8.2 15.6-20.2 20.8-26.5 5.3-6.3 15.5-17.7 22.7-25.4 7.1-7.6 19.1-19.3 26.5-26 7.4-6.8 18.9-16.3 25.5-21.3 6.6-4.9 16-11.3 21-14.3 5-2.9 10.1-6 11.5-6.9 1.4-0.8 2-1 1.5-0.4-0.5 0.5-4.8 3.6-9.5 6.9-4.7 3.2-14.1 10.8-21 16.8-6.9 6-17.5 16.1-23.5 22.5-6.1 6.4-16.1 17.7-22.1 25.1-6.1 7.4-14.2 17.8-17.9 23-3.8 5.2-11.9 17.1-18.1 26.5-6.2 9.4-16.2 25.8-22.4 36.5-6.1 10.7-16.9 31-23.9 45-7 14-15.8 32.5-19.6 41-3.7 8.5-10.1 23.7-14.1 33.8-4.1 10-7.4 18.6-7.4 19.2 0 0.6 3.1 0.1 7.3-1 3.9-1.2 15.5-4.8 25.7-8.2 10.2-3.4 23.5-8 29.5-10.3 6.1-2.4 16.9-6.9 24-10 7.1-3.2 18.9-8.7 26-12.3 7.1-3.5 18.4-9.5 25-13.2 6.6-3.7 14.7-8.4 18-10.5 3.3-2.1 11.4-7.4 18-11.8 6.6-4.4 17-11.8 23-16.5 6-4.8 15-12 20-16.1 5-4.2 15.5-13.9 23.4-21.6 7.9-7.7 18.7-19.2 24.1-25.5 5.4-6.3 14-16.9 19.1-23.5 5.1-6.6 13.3-18.3 18.4-26 5.1-7.7 13.1-21 17.8-29.5 4.8-8.5 12.8-24.5 17.8-35.5 5-11 13.8-31.9 19.4-46.5 5.6-14.6 12.8-33.7 15.8-42.5 3-8.8 8.3-23.9 11.7-33.5 3.5-9.6 8.2-23.8 10.6-31.5 3.2-10.3 4-14.2 3.1-14.7-0.7-0.4-6.7-3.2-13.4-6.3-7.2-3.2-19.5-7.5-29.5-10.4-9.5-2.7-20-5.4-23.3-6-3.3-0.6-11-1.5-17-2.1-6-0.5-19.5-0.9-30-0.8-10.5 0.1-20.8 0.3-23 0.5z"/>
</svg>