<svg xmlns="http://www.w3.org/2000/svg" viewBox="0 0 1389 2449">
  <path class="cls-1" d="M784,0c58.439,19.219,155.418,247.6,183,318,19.226,49.072,33.67,101.979,52,156,13.96,41.156,31.61,81.353,40,127,12.86,69.989,9.99,144.787,10,223q-0.495,74.493-1,149c-17.86,119.12-43.91,234.1-85,335q-34,65.49-68,131-23.5,51-47,102c-47.938,84.53-94.092,179.49-131,275-37.876,98.02-60.568,210.1-83,318-8.6,41.38-14.454,106.93,4,142h3c19.891-302.58,135.9-517.55,256-720,31.056-52.35,53.084-110.01,87-159q70.5-91.485,141-183,18-42.99,36-86c44.75-106.03,83.84-227.526,119-342,14.32-46.62,18.13-96.716,38-138l4-1,3,2q9,90.491,18,181-1.005,24-2,48c8.55,60.671-.13,130.54-8,188-9.33,68.12-4.98,131.2-16,192-14.34,79.08-44.21,150.7-74,218-23.71,53.57-52.25,108.91-85,155q-33.99,42.495-68,85c0.33,1.67.67,3.33,1,5,78.61-33.9,154.08-84.2,211-141q16.5-19.005,33-38c8.68-13.91,13.98-38.56,28-47,1.67,0.67,3.33,1.33,5,2,1.51,48.29-31.37,98.01-53,130-21.1,31.21-35.66,63.72-59,92-26.89,32.58-92.07,72.57-129,96-78.3,49.68-150.988,69.52-209,141-77.333,95.29-145.415,210.9-186,341l-32,115q-1.5,15.495-3,31l-4,6c-9.733,3.19-60.21-34.33-68-40-64.454-46.89-121.047-97.24-181-147-152.2-126.31-269.555-296.65-324-520-36.307-148.94-33.242-330.06-68-478-9.381-39.93-20.773-77.73-36-112q-18-39-36-78c1.333-.33,2.667-0.67,4-1,17.454,29.33,43.8,49.6,64,76,79,103.21,172.1,193.78,222,325,51.353,135.04,83.587,281.06,124,422,22.618,78.88,33.821,164.9,79,221,1.333-.33,2.667-0.67,4-1,2.614-29.41-6.518-61.71-12-88-13.045-62.55-25.321-121.19-42-177q-18-79.485-36-159c-47.288-152.66-141.313-340.78-112-556,25.692-188.628,55.512-343.533,134-476,54.689-92.3,122.434-170.933,160-279,6.37-18.324,17.455-27.394,18-54,24.327,7,23.072,45.747,30,70,20.366,71.292,28.956,148.165,40,232,22.607,171.6-9.9,337.987-57,458q-40.5,90.495-81,181c-22.555,57.47-36.328,125.92-52,190-16.963,69.36-16.314,173.15-6,251,3.735,28.19-3.579,81.6,17,92l3-3c15.972-120.36,28.255-244.19,60-350,48.639-162.12,125.055-305.92,189-457,35.749-84.464,57.771-171.564,91-259,52.026-136.9,92.895-346.426,46-512l-21-51c-6.663-24.617-7.12-44.356-18-63C827.641,71.112,802.175,38.577,782,5Q783,2.5,784,0Z"/>
</svg>
