<svg xmlns="http://www.w3.org/2000/svg" viewBox="0 0 1915 1205">
  <path class="cls-1" d="M1183,1l28,2V5c-11.48,32.451-58.63,55.454-80,81l-88,113C920.822,355.793,810.963,580.886,641,685c-44.761,27.419-135.12,43.1-207,34-29.52-3.735-75.007-13.539-105-3-38.125,13.4-81.478,69.686-115,95l2,6c32.713,3.659,65.473-6.406,96-11,111.108-16.721,212-29.489,308-57,42.016-12.041,103.907-15.428,136-40l58-127c44.734-76.869,113.993-146.962,185-198,69.1-49.67,150.51-76.925,255-93l215-17,152-8c80.54-13.213,146.86-24.471,224-40l66-13c0.67,0.667,1.33,1.333,2,2,4.19,21.455-45.83,61.7-58,77-59.89,75.305-129.55,139.372-206,198-151.39,116.1-299.27,250.427-512,303-89.46,22.108-218.3,16.6-294-12-29.333-11.083-60.21-46.63-85-51L641,761c-85.851,25.516-176.686,37.21-269,62q1,3.5,2,7l90,37c45.164,7.386,101.536-13.2,139-20l117-8,101,4,97,1,154,13,103-3c75.93-9.341,156.2,3.666,221,13l203,10c24.13,0,73.61-6.614,87,6v1c-35.75,46.879-117.3,91.425-169,124-59.09,37.24-110.91,80.74-178,110-60.53,26.4-136.32,45.55-208,58q-39.495,4.005-79,8c-112.43,20.38-277.395,34.97-381-9-93.295-39.6-155.161-127.25-192-224q-7.5-30.5-15-61c-48.148-29.233-118.221-47.178-183-57l-128,9c-36.932.03-143.5,3.408-153-18l2-2,168-2c27.4-7.493,169.92-135.333,180-160,14.4-35.233,2.255-104.039,12-144,20.433-83.789,71.257-167.894,120-227C555.773,199.542,763.035,77.412,895,46l68-7,148-27Z"/>
</svg>
