<svg version="1.2" xmlns="http://www.w3.org/2000/svg" viewBox="0 0 480 448">
	<path id="Layer" class="s0" d="m89.1 170.6c7.7-21.8 20.2-42.3 37.8-59.8 62.5-62.5 163.8-62.5 226.3 0l17.1 17.2h-34.3c-17.7 0-32 14.3-32 32 0 17.7 14.3 32 32 32h111.5 0.4c17.7 0 32-14.3 32-32v-112c0-17.7-14.3-32-32-32-17.7 0-32 14.3-32 32v35.2l-17.5-17.6c-87.5-87.5-229.3-87.5-316.8 0-24.4 24.4-42 53.1-52.8 83.8-5.9 16.7 2.9 34.9 19.5 40.8 16.6 5.9 34.9-2.9 40.8-19.5zm-66.1 86.7c-5 1.5-9.8 4.2-13.7 8.2-4 4-6.7 8.8-8.1 14-0.3 1.2-0.6 2.5-0.8 3.8-0.3 1.7-0.4 3.4-0.4 5.1v111.6c0 17.7 14.3 32 32 32 17.7 0 32-14.3 32-32v-35.1l17.6 17.5c87.5 87.4 229.3 87.4 316.7 0 24.4-24.4 42.1-53.1 52.9-83.8 5.9-16.7-2.9-34.9-19.5-40.8-16.6-5.9-34.9 2.9-40.8 19.5-7.7 21.8-20.2 42.3-37.8 59.8-62.5 62.5-163.8 62.5-226.3 0l-0.1-0.1-17.1-17h34.4c17.7 0 32-14.3 32-32 0-17.7-14.3-32-32-32h-111.6q-2.4 0-4.8 0.3c-1.6 0.2-3.1 0.5-4.6 1z" fill="#ffffff"/>
</svg>