<svg xmlns="http://www.w3.org/2000/svg" viewBox="0 0 2984 1361">
  <path class="cls-1" d="M2225,1c83.16-1.393,154.93,8.58,218,28,318.21,97.978,646.83,403.6,508,851-34.85,112.312-96.19,198.83-163,279-43.89,52.66-105.93,96.83-167,132-43.21,24.88-93.93,43.98-148,57-48.5,11.68-116.23,16.99-173,9-59.67-8.39-109.99-13.5-160-29-164.46-50.98-284.36-147.33-441-207-55.84-21.27-115.23-27.45-185-37-80.29-10.99-161.17,9.96-222,25-205.09,50.72-347.541,147.72-564,191-60.574,12.11-143.952,19.59-213,9-41.593-6.38-81.1-13.55-117-26-69.462-24.1-124-60.1-175-102-64.794-53.23-116.929-127.57-153-209C41.486,907.632,23.512,837.3,10,757-48.769,407.758,184.339,263.327,452,215c59.836-10.8,141.856-21.4,212-12l130,12c123.385,21.383,298.5,41.7,440,22l122-17,219-71q143.49-42.495,287-85c79.25-22.872,161.56-38.391,248-53Z"/>
</svg>
