<svg xmlns="http://www.w3.org/2000/svg" viewBox="0 0 400 258">
  <path class="cls-1" d="M265.235,0.148c68.725-.943,110.425,31.71,127.36,82.6,1.8,5.406,3.075,11.388,4.591,17.319l1.629,10.657q0.444,5.477.889,10.954v4.589a16.285,16.285,0,0,1,0,5.328c-0.324,1.481.136,3.44-.148,4.737v2.664c-0.367,1.642-.04,3.545-0.445,5.329-1.085,4.786-.93,9.781-2.221,14.358q-1.259,4.959-2.518,9.918a121.809,121.809,0,0,1-7.108,17.762c-0.719,1.377-1.12,2.819-1.925,4.145-6.887,11.329-14.349,22.383-24.732,30.2-1.583,1.191-2.984,2.815-4.591,4-5.722,4.207-11.849,7.761-18.067,11.546a69.229,69.229,0,0,1-8.293,3.849c-7.443,3.27-15.424,6.053-23.695,8.733-5.424,1.757-11.254,2.558-16.883,4-5.419,1.385-11.22,1.4-16.734,2.665-1.768.406-3.571,0.227-5.184,0.592l-16.882,1.332c-2.286.5-5.076-.184-7.257,0.3h-7.108a30.228,30.228,0,0,1-5.48.148l-12.44-.148c-4.746,0-9.863.1-14.365-.148-2.718-.151-5.991.389-8.441-0.148-2.093-.459-4.755.271-6.664-0.148l-17.92-.444c-3.811-.838-8.37.087-12.143-0.74h-2.518c-2.829-.625-6.058.067-9.033-0.592-2.353-.522-5.044-0.032-7.553-0.592-1.482-.331-3.25-0.076-4.887-0.444-4.419-.994-9.459-0.649-13.773-1.629l-3.554-.3L104.11,250.6c-3.9-.977-8.073-1.114-12-2.22-2.963-.836-6.12-1.2-9.182-2.073-6.678-1.9-13.6-3.563-19.7-6.068-1.539-.632-2.923-0.851-4.443-1.481a122.854,122.854,0,0,1-17.031-8.141c-3.873-2.373-7.642-4.9-11.255-7.549-1.1-.807-2.029-2-3.11-2.812a36.922,36.922,0,0,1-7.109-6.957l-1.037-.888C15.24,207.1,10.987,201.7,8.145,195.239c-2.491-5.664-4.111-11.689-5.924-18.206l-1.481-9.77-0.148-3.256c-0.364-1.71.111-3.821-.3-5.773-0.628-3.009-.163-10.175.444-12.878l0.3-3.552,1.777-8.881c0.947-2.932,1.644-6.058,2.814-8.882a94.611,94.611,0,0,1,9.922-18.354c1.707-2.429,3.424-4.628,5.183-6.957,0.86-1.139,2.254-1.977,3.11-3.108a12.048,12.048,0,0,1,2.073-2.368c1.9-1.437,3.44-3.323,5.331-4.737,3.32-2.482,6.677-5.02,10.218-7.253,6.88-4.337,14.882-7.589,23.251-10.361l9.774-2.516c4.78-1.331,10.033-1.1,15.106-2.22,2.5-.552,5.282.086,7.7-0.444l10.811-.148,8-.888c5.543-1.353,11.018-1.992,16.142-3.7,23.4-7.8,42.838-19.267,62.051-31.232,6.534-4.069,13.289-7.693,19.845-11.694,3.308-2.019,6.941-3.482,10.218-5.477a49.331,49.331,0,0,1,5.924-2.664c3.516-1.547,7.278-3.228,10.959-4.737,3.293-1.35,6.9-2.066,10.367-3.108,3-.9,6.3-0.92,9.477-1.628C262.3,0.175,264.28.752,265.235,0.148Z"/>
</svg>
